<svg width="550" height="876" viewBox="0 0 550 876" fill="none" xmlns="http://www.w3.org/2000/svg">
<path d="M120.614 0C121.184 0.438667 121.752 0.876 122.338 1.328C146.405 19.6387 171.288 34.8147 200.097 44.28C203.478 45.3987 206.845 46.5587 210.213 47.7187C226.106 53.0907 241.858 56.8453 258.429 59.4373C260.841 59.8227 263.249 60.2347 265.653 60.6667C275.592 62.4373 285.502 63.44 295.56 64.272C345.952 68.504 403.025 75.5653 441.948 110.667C443.085 111.679 444.224 112.692 445.396 113.735C454.3 122.104 465.252 134.129 468.166 146.391C469.948 149.333 469.948 149.333 472.389 150.241C475.73 150.972 479.062 151.507 482.448 152C507.214 156.323 523.001 166.667 538.521 186.427C545.929 197.056 550.528 211.125 549.948 224C549.278 223.664 548.608 223.329 547.918 222.983C534.162 216.141 520.986 210.107 505.948 206.667C504.746 206.385 503.545 206.103 502.308 205.812C465.892 197.908 427.029 203.169 394.636 221.839C378.71 232.101 366 244.896 356.614 261.333C356.096 262.221 355.576 263.111 355.041 264.027C339.76 292.163 339.924 327.249 348.614 357.333C355.481 378.596 365.662 398.308 379.073 416.161C399.329 443.207 414.821 471.101 423.281 504C423.568 505.095 423.856 506.189 424.15 507.317C433.613 546.2 428.89 593.509 415.281 630.667C414.994 631.46 414.994 631.46 413.546 635.473C402.934 663.363 388.998 689.843 367.281 710.667C366.209 711.739 365.136 712.812 364.03 713.917C363.344 714.604 362.656 715.292 361.948 716C362.174 715.189 362.401 714.377 362.636 713.541C363.758 709.477 364.857 705.407 365.948 701.333C366.396 699.661 366.845 697.988 367.308 696.265C367.772 694.483 368.236 692.7 368.697 690.917C369.125 689.285 369.553 687.655 369.994 685.973C373.352 671.392 374.377 656.927 374.281 642C374.292 640.396 374.301 638.793 374.312 637.14C374.194 582.227 351.105 529.432 313.969 489.557C311.402 486.797 308.965 483.96 306.532 481.083C301.842 475.737 296.75 471.2 291.281 466.667C290.557 466.053 289.834 465.439 289.088 464.807C275.832 453.569 262.122 443.701 247.281 434.667C246.365 434.109 245.45 433.551 244.506 432.976C233.67 426.417 222.652 420.228 211.532 414.167C190.598 402.729 170.225 390.664 151.068 376.411C148.614 374.667 148.614 374.667 146.016 373.157C141.049 370.157 138.776 367.92 137.25 362.229C136.832 360.049 136.454 357.86 136.114 355.667C136.014 355.128 136.014 355.128 135.505 352.401C134.92 349.163 134.417 345.924 133.948 342.667C133.812 341.748 133.677 340.829 133.537 339.883C126.046 282.072 142.666 226.084 177.948 180C192.653 161.377 209.293 144.392 228.781 130.749C232.614 128 232.614 128 233.948 125.333C232.425 125.209 230.902 125.085 229.333 124.959C222.948 124.149 217.598 122.007 211.781 119.333C210.738 118.859 209.696 118.384 208.621 117.895C191.632 109.951 177.985 99.7173 164.614 86.6667C163.757 85.892 162.9 85.116 162.016 84.3173C142.802 66.5373 130.437 40.7733 123.281 16C122.784 14.408 122.288 12.8173 121.776 11.1773C120.749 7.18933 120.368 4.07867 120.614 0Z" fill="#F0B605"/>
<path d="M8.61426 276C9.49426 276 10.3743 276 11.2809 276C11.5889 276.709 11.5889 276.709 13.1449 280.303C19.1823 293.873 26.1623 305.632 35.2809 317.333C36.1929 318.544 37.1063 319.753 38.0463 321C51.3143 337.984 66.9489 353.025 84.6143 365.333C85.1756 365.757 85.1756 365.757 88.0156 367.907C98.3156 375.691 109.293 382.281 120.356 388.907C122.962 390.475 125.557 392.063 128.145 393.661C139.449 400.608 151.053 406.931 162.734 413.217C205.349 436.171 205.349 436.171 224.614 449.333C225.518 449.951 226.421 450.567 227.352 451.203C245.373 463.577 262.034 477.009 277.948 492C279.058 493.023 280.168 494.045 281.312 495.099C312.624 524.941 334.397 565.888 343.281 608C343.522 609.137 343.764 610.275 344.012 611.447C346.226 623.091 346.477 634.612 346.448 646.416C346.448 647.439 346.448 648.46 346.448 649.513C346.409 667.224 344.769 684.072 340.614 701.333C340.408 702.243 340.201 703.153 339.989 704.091C335.829 722.133 327.201 738.741 317.948 754.667C317.269 755.839 316.59 757.011 315.89 758.219C308.75 769.989 299.896 781.116 289.948 790.667C290.778 787.305 291.613 783.944 292.448 780.584C292.68 779.644 292.912 778.705 293.15 777.737C294.252 773.312 295.4 768.935 296.697 764.563C307.492 725.167 300.197 679.3 280.46 644.007C263.13 614.624 239.072 592.136 209.578 575.333C208.384 574.652 207.19 573.972 205.96 573.271C188.221 563.297 169.837 554.535 151.556 545.612C116.765 528.617 84.6289 509.611 56.6143 482.667C55.6103 481.763 54.6063 480.859 53.5729 479.927C25.0796 453.395 2.74626 410.944 0.444926 371.792C0.328926 368.524 0.255593 365.259 0.202259 361.989C0.182259 360.775 0.162259 359.559 0.142259 358.307C0.0889259 354.371 0.0555924 350.436 0.0302591 346.5C0.0262591 345.832 0.0262592 345.832 0.00225918 342.455C-0.0844075 319.355 2.31426 298.28 8.61426 276Z" fill="#F0B605"/>
<path d="M13.9477 486.667C18.9064 490.715 23.4211 494.673 27.5317 499.584C40.5104 514.679 56.2797 526.156 72.6144 537.333C73.4371 537.901 74.2611 538.469 75.1091 539.055C99.9851 556.013 128.022 569.012 155.532 581.083C183.429 593.344 207.696 606.956 229.948 628C230.47 628.487 230.47 628.487 233.114 630.953C259.405 656.221 273.25 692.692 274.265 728.74C274.553 747.924 273.79 765.507 268.614 784C268.245 785.516 267.876 787.032 267.494 788.593C262.68 806.657 253.038 823.461 240.614 837.333C240.116 837.927 240.116 837.927 237.593 840.927C225.246 855.225 209.538 867.475 192.614 876C191.734 875.56 190.854 875.12 189.948 874.667C191.076 873.429 192.202 872.192 193.364 870.917C220.076 839.515 230.558 799.096 228.614 758.667C225.846 728.661 208.362 700.863 185.77 681.703C172.264 670.737 157.122 662.392 141.836 654.207C127.864 646.713 114.732 638.703 101.948 629.333C101.202 628.801 100.456 628.271 99.6878 627.723C56.5584 596.985 23.2371 545.813 13.9477 493.333C13.8931 491.112 13.8757 488.888 13.9477 486.667Z" fill="#F0B605"/>
<path d="M359.281 129.333C388.549 128.12 418.231 132.207 441.947 150.667C441.947 151.107 441.947 151.547 441.947 152C441.09 152.049 440.233 152.1 439.349 152.151C432.267 152.667 425.527 153.611 418.614 155.251C417.167 155.588 415.719 155.927 414.229 156.276C411.442 156.964 408.67 157.708 405.917 158.516C402.213 159.475 399.106 160.136 395.281 160C392.425 158.259 390.743 156.288 388.625 153.703C385.233 149.856 381.346 146.839 377.281 143.749C376.569 143.196 375.857 142.643 375.122 142.072C370.075 138.217 364.846 135.057 359.281 132C359.281 131.12 359.281 130.24 359.281 129.333Z" fill="#FFF8EE"/>
<path d="M8.61432 276C9.49432 276 10.3743 276 11.281 276C12.625 279.585 12.917 281.889 11.5157 285.484C10.169 288.144 8.77299 290.753 7.28099 293.333C5.85032 288.971 6.09032 286.095 7.19832 281.667C7.32765 281.133 7.32765 281.133 7.98365 278.437C8.19165 277.633 8.39965 276.829 8.61432 276Z" fill="#F0B605"/>
<path d="M293.947 774.667C294.387 774.667 294.827 774.667 295.281 774.667C296.363 778.917 296.363 778.917 296.614 784C293.363 787.917 293.363 787.917 289.947 790.667C291.267 785.387 292.587 780.107 293.947 774.667Z" fill="#F0B605"/>
</svg>
